<?xml version="1.0" encoding="UTF-8"?>
<svg width="158px" height="78px" viewBox="0 0 158 78" version="1.1" xmlns="http://www.w3.org/2000/svg" xmlns:xlink="http://www.w3.org/1999/xlink">
    <!-- Generator: sketchtool 50.2 (55047) - http://www.bohemiancoding.com/sketch -->
    <title>9536CB18-D858-46A5-8C6C-5AF528B22D0C</title>
    <desc>Created with sketchtool.</desc>
    <defs/>
    <g id="Page-1" stroke="none" stroke-width="1" fill="none" fill-rule="evenodd">
        <g id="L&amp;-S-landing-page-SMB" transform="translate(-728.000000, -598.000000)">
            <g id="Group" transform="translate(618.000000, 543.000000)">
                <g id="tracking_time_webinars" transform="translate(110.000000, 56.000000)">
                    <path d="M28.7953917,13.5462963 C28.7953917,21.0324074 22.5732719,27.0925926 15.0488479,27.0925926 C7.52442396,27.0925926 1.30230415,20.9611111 1.30230415,13.5462963 C1.30230415,6.13148148 7.52442396,0 15.0488479,0 C22.5732719,0 28.7953917,6.13148148 28.7953917,13.5462963 Z" id="Stroke-1" stroke="#BABDC4" stroke-width="1.44" stroke-linecap="round"/>
                    <polyline id="Stroke-3" stroke="#BABDC4" stroke-width="1.44" stroke-linecap="round" points="14.1806452 3.42222222 14.1806452 14.4018519 20.1857143 19.4638889"/>
                    <path d="M78.2829493,73.5777778 C78.5,73.0787037 78.6447005,72.5796296 78.6447005,72.0092593 L78.6447005,56.9657407" id="Stroke-5" stroke="#BABEC5" stroke-width="1.44" stroke-linecap="round" stroke-linejoin="round"/>
                    <polyline id="Stroke-7" stroke="#BABEC5" stroke-width="1.44" stroke-linecap="round" stroke-linejoin="round" points="46.9552995 69.7277778 47.0276498 75.6453704 74.9548387 75.6453704"/>
                    <path d="M32.9193548,70.5833333 C32.9193548,68.0166667 37.7668203,64.9509259 37.7668203,64.9509259 L45.5082949,67.3037037 L52.0921659,67.3037037 L64.8981567,67.3037037" id="Stroke-9" stroke="#BABEC5" stroke-width="1.44" stroke-linecap="round" stroke-linejoin="round"/>
                    <path d="M11.937788,75.5740741 L40.9502304,75.5740741 C42.1801843,75.5740741 43.0483871,74.5759259 43.0483871,73.4351852 L43.0483871,72.7222222 C43.0483871,71.5101852 42.1078341,70.5833333 40.8778802,70.5833333 L32.9193548,70.5833333" id="Stroke-11" stroke="#BABEC5" stroke-width="1.44" stroke-linecap="round" stroke-linejoin="round"/>
                    <path d="M29.8082949,69.7277778 L25.9737327,51.9037037 C25.9013825,51.5472222 25.6119816,51.3333333 25.2502304,51.3333333 L1.44700461,51.3333333 C1.01290323,51.3333333 0.651152074,51.7611111 0.723502304,52.1888889 L4.55806452,70.012963 C4.63041475,70.3694444 4.91981567,70.5833333 5.28156682,70.5833333 L29.1571429,70.5833333 C29.5912442,70.5833333 29.9529954,70.2268519 29.8082949,69.7277778 Z" id="Stroke-13" stroke="#BABEC5" stroke-width="1.44" stroke-linecap="round" stroke-linejoin="round"/>
                    <path d="M38.924424,67.9453704 C38.924424,67.9453704 37.4050691,68.3018519 36.7539171,70.4407407" id="Stroke-15" stroke="#BABEC5" stroke-width="1.44" stroke-linecap="round" stroke-linejoin="round"/>
                    <path d="M12.0824885,61.3861111 C12.4442396,62.9546296 14.0359447,64.237963 15.6276498,64.237963 C17.2193548,64.237963 18.2322581,62.9546296 17.8705069,61.3861111 C17.5087558,59.8175926 15.9170507,58.5342593 14.3253456,58.5342593 C12.7336406,58.5342593 11.7207373,59.8175926 12.0824885,61.3861111" id="Fill-17" fill="#52B600" fill-rule="nonzero"/>
                    <path d="M48.1852535,75.6453704 L122.850691,75.6453704" id="Stroke-19" stroke="#BABEC5" stroke-width="1.44" stroke-linecap="round" stroke-linejoin="round"/>
                    <polyline id="Stroke-21" stroke="#BABEC5" stroke-width="1.43784" stroke-linecap="round" stroke-linejoin="round" points="135.873733 60.6731481 144.121659 68.087963 135.801382 75.6453704 142.747005 75.6453704"/>
                    <polyline id="Stroke-23" stroke="#BABEC5" stroke-width="1.43784" stroke-linecap="round" stroke-linejoin="round" points="121.548387 60.6731481 129.723963 68.087963 121.403687 75.6453704 128.421659 75.6453704"/>
                    <polyline id="Stroke-25" stroke="#BABEC5" stroke-width="1.43784" stroke-linecap="round" stroke-linejoin="round" points="109.682949 41.4231481 105.124885 50.4064815 114.892166 46.912963 115.760369 49.6222222"/>
                    <polyline id="Stroke-27" stroke="#BABEC5" stroke-width="1.43784" stroke-linecap="round" stroke-linejoin="round" points="150.63318 48.837963 155.914747 46.912963 156.710599 49.6222222"/>
                    <path d="M138.840092,19.962963 L145.713364,19.962963 C149.113825,19.962963 150.488479,22.6722222 150.488479,26.0231481 L150.488479,28.0194444" id="Stroke-29" stroke="#BABEC5" stroke-width="1.44" stroke-linecap="round" stroke-linejoin="round"/>
                    <path d="M133.413825,19.962963 L127.915207,19.962963" id="Stroke-31" stroke="#BABEC5" stroke-width="1.44" stroke-linecap="round" stroke-linejoin="round"/>
                    <path d="M110.406452,33.437963 L110.406452,59.0333333 C110.406452,59.8175926 111.057604,60.4592593 111.853456,60.4592593 L149.403226,60.4592593 C150.199078,60.4592593 150.85023,59.8175926 150.85023,59.0333333 L150.85023,34.8638889 L150.85023,32.0833333 C150.85023,31.3703704 150.199078,30.7287037 149.403226,30.7287037 L111.781106,30.7287037 C111.057604,30.7287037 110.406452,30.1583333 110.406452,29.3740741 L110.406452,26.0231481 C110.406452,22.6722222 114.241014,19.962963 117.569124,19.962963 L122.705991,19.962963" id="Stroke-33" stroke="#BABEC5" stroke-width="1.44" stroke-linecap="round" stroke-linejoin="round"/>
                    <path d="M136.163134,15.8990741 L136.163134,24.6685185" id="Stroke-35" stroke="#BABEC5" stroke-width="1.44" stroke-linecap="round" stroke-linejoin="round"/>
                    <path d="M125.165899,15.8990741 L125.165899,24.6685185" id="Stroke-37" stroke="#BABEC5" stroke-width="1.44" stroke-linecap="round" stroke-linejoin="round"/>
                    <path d="M131.677419,36.1472222 L131.677419,38.7851852 C131.677419,39.212963 131.388018,39.4981481 130.953917,39.4981481 L128.276959,39.4981481" id="Stroke-39" stroke="#BABEC5" stroke-width="1.44" stroke-linecap="round" stroke-linejoin="round"/>
                    <path d="M123.429493,36.1472222 L123.429493,38.7851852 C123.429493,39.212963 123.067742,39.4981481 122.705991,39.4981481 L120.029032,39.4981481" id="Stroke-41" stroke="#BABEC5" stroke-width="1.44" stroke-linecap="round" stroke-linejoin="round"/>
                    <path d="M139.925346,51.0481481 L139.925346,53.6861111 C139.925346,54.1138889 139.635945,54.3990741 139.201843,54.3990741 L136.524885,54.3990741" id="Stroke-43" stroke="#BABEC5" stroke-width="1.44" stroke-linecap="round" stroke-linejoin="round"/>
                    <path d="M139.925346,36.1472222 L139.925346,38.7851852 C139.925346,39.212963 139.635945,39.4981481 139.201843,39.4981481 L136.524885,39.4981481" id="Stroke-45" stroke="#BABEC5" stroke-width="1.44" stroke-linecap="round" stroke-linejoin="round"/>
                    <path d="M139.925346,43.6333333 L139.925346,46.2712963 C139.925346,46.6277778 139.635945,46.9842593 139.201843,46.9842593 L136.524885,46.9842593" id="Stroke-47" stroke="#BABEC5" stroke-width="1.44" stroke-linecap="round" stroke-linejoin="round"/>
                    <path d="M131.677419,51.0481481 L131.677419,53.6861111 C131.677419,54.1138889 131.388018,54.3990741 130.953917,54.3990741 L128.276959,54.3990741" id="Stroke-49" stroke="#BABEC5" stroke-width="1.44" stroke-linecap="round" stroke-linejoin="round"/>
                    <path d="M131.677419,43.6333333 L131.677419,46.2712963 C131.677419,46.6277778 131.388018,46.9842593 130.953917,46.9842593 L128.276959,46.9842593" id="Stroke-51" stroke="#BABEC5" stroke-width="1.44" stroke-linecap="round" stroke-linejoin="round"/>
                    <path d="M123.429493,51.0481481 L123.429493,53.6861111 C123.429493,54.1138889 123.067742,54.3990741 122.705991,54.3990741 L120.029032,54.3990741" id="Stroke-53" stroke="#BABEC5" stroke-width="1.44" stroke-linecap="round" stroke-linejoin="round"/>
                    <path d="M123.429493,43.6333333 L123.429493,46.2712963 C123.429493,46.6277778 123.067742,46.9842593 122.705991,46.9842593 L120.029032,46.9842593" id="Stroke-55" stroke="#BABEC5" stroke-width="1.44" stroke-linecap="round" stroke-linejoin="round"/>
                    <polygon id="Fill-57" fill="#52B600" fill-rule="nonzero" points="135.656682 55.1833333 140.721198 55.1833333 140.721198 50.1925926 135.656682 50.1925926"/>
                    <path d="M104.401382,32.5824074 L94.2,32.5824074" id="Stroke-59" stroke="#BABEC5" stroke-width="1.44" stroke-linecap="round" stroke-linejoin="round" stroke-dasharray="1.440000021457672,2.880000042915345"/>
                    <path d="M100.783871,37.3592593 L90.5824885,37.3592593" id="Stroke-60" stroke="#BABEC5" stroke-width="1.44" stroke-linecap="round" stroke-linejoin="round" stroke-dasharray="1.440000021457672,2.880000042915345"/>
                    <path d="M97.1663594,42.0648148 L86.964977,42.0648148" id="Stroke-61" stroke="#BABEC5" stroke-width="1.44" stroke-linecap="round" stroke-linejoin="round" stroke-dasharray="1.440000021457672,2.880000042915345"/>
                    <path d="M51.6580645,36.7175926 C51.6580645,36.7175926 53.0327189,38.5 55.275576,38.5 C57.5184332,38.5 58.8930876,36.7175926 58.8930876,36.7175926" id="Stroke-62" stroke="#BABDC4" stroke-width="1.44" stroke-linecap="round"/>
                    <path d="M66.6345622,24.8824074 C62.7276498,24.8824074 59.3995392,20.6759259 59.3995392,16.612037" id="Stroke-63" stroke="#BABDC4" stroke-width="1.44" stroke-linecap="round"/>
                    <path d="M45.6529954,24.312037 L45.6529954,32.012037 L45.6529954,30.2296296 L45.6529954,34.9351852 C45.6529954,39.212963 49.2705069,42.6351852 53.5391705,42.6351852 L60.6294931,42.6351852" id="Stroke-64" stroke="#BABDC4" stroke-width="1.44" stroke-linecap="round"/>
                    <path d="M55.2032258,16.612037 C55.2032258,23.1712963 58.4589862,28.4472222 64.8258065,28.4472222 L64.8981567,28.4472222 C66.8516129,28.4472222 68.5156682,30.0157407 68.5156682,32.012037 C68.5156682,33.937037 66.9239631,35.5768519 64.9705069,35.5768519" id="Stroke-65" stroke="#BABDC4" stroke-width="1.44" stroke-linecap="round"/>
                    <path d="M45.7253456,26.6648148 L50.7898618,26.6648148 C51.5857143,26.6648148 52.2368664,27.3064815 52.2368664,28.0907407 L52.2368664,29.587963" id="Stroke-66" stroke="#BABDC4" stroke-width="1.44" stroke-linecap="round"/>
                    <path d="M69.0221198,47.3407407 L70.8308756,47.3407407 C75.1718894,47.3407407 78.6447005,50.762963 78.6447005,55.0407407 L78.6447005,64.5231481" id="Stroke-67" stroke="#BABDC4" stroke-width="1.44" stroke-linecap="round"/>
                    <path d="M52.8156682,67.3037037 L67.7921659,67.3037037 C68.443318,67.3037037 69.0221198,66.662037 69.0221198,65.9490741 L69.0221198,58.6055556 C69.0221198,55.3259259 71.6990783,52.687963 75.0271889,52.687963 L75.6059908,52.687963" id="Stroke-68" stroke="#BABDC4" stroke-width="1.44" stroke-linecap="round"/>
                    <path d="M52.0921659,47.3407407 L50.2834101,47.3407407 C45.9423963,47.3407407 42.4695853,50.762963 42.4695853,55.0407407 L42.4695853,66.162963" id="Stroke-69" stroke="#BABDC4" stroke-width="1.44" stroke-linecap="round"/>
                    <path d="M55.2032258,16.612037 L54.1903226,18.3944444 C52.4539171,21.5314815 49.3428571,23.6703704 45.7976959,24.312037 L45.6529954,24.312037" id="Stroke-70" stroke="#BABDC4" stroke-width="1.44" stroke-linecap="round"/>
                    <path d="M45.0018433,35.4342593 C42.8313364,32.5824074 41.6013825,29.0175926 41.6013825,25.2388889 C41.6013825,15.7564815 49.3428571,8.19907407 58.9654378,8.19907407 C68.5880184,8.19907407 76.3294931,15.8277778 76.3294931,25.3101852 C76.3294931,30.0157407 74.3760369,34.2935185 71.264977,37.4305556 L72.5672811,39.0703704 C72.856682,39.4268519 72.5672811,39.9972222 72.0608295,39.9972222 L70.3967742,39.9972222" id="Stroke-71" stroke="#BABDC4" stroke-width="1.44" stroke-linecap="round"/>
                    <path d="M59.9059908,7.7712963 C60.9912442,5.20462963 63.5235023,3.42222222 66.4898618,3.42222222 C73.6525346,3.42222222 79.5129032,9.19722222 79.5129032,16.2555556 L79.5129032,32.3685185 C79.5129032,35.0064815 81.6834101,37.0740741 84.2880184,37.0740741 C82.9133641,40.9953704 78.8617512,43.4907407 74.6654378,42.9916667 L72.0608295,42.7064815" id="Stroke-72" stroke="#BABDC4" stroke-width="1.44" stroke-linecap="round"/>
                    <path d="M70.3967742,39.9259259 L69.8903226,39.9259259 C68.0815668,39.9259259 66.6345622,38.5 66.6345622,36.7175926" id="Stroke-73" stroke="#BABDC4" stroke-width="1.44" stroke-linecap="round"/>
                    <path d="M64.8981567,39.2842593 L64.8981567,44.9166667 L67.5751152,44.9166667 C68.2986175,44.9166667 68.8774194,45.6296296 68.7327189,46.3425926 L68.443318,47.7685185 C67.8645161,50.5490741 65.9110599,52.8305556 63.1617512,53.9 L63.0170507,53.9712963 L59.978341,50.9768519 L56.7225806,54.1851852 C54.2626728,52.9731481 52.5986175,50.05 52.1645161,47.412037" id="Stroke-74" stroke="#BABDC4" stroke-width="1.44" stroke-linecap="round"/>
                    <path d="M64.0299539,47.1981481 C62.8723502,48.4101852 61.2082949,49.1944444 59.3271889,49.1944444 C57.5184332,49.1944444 55.8543779,48.4814815 54.6967742,47.3407407" id="Stroke-75" stroke="#BABDC4" stroke-width="1.44" stroke-linecap="round"/>
                    <path d="M46.8105991,55.9675926 L46.8105991,67.0185185" id="Stroke-76" stroke="#BABDC4" stroke-width="1.44" stroke-linecap="round"/>
                </g>
            </g>
        </g>
    </g>
</svg>