<?xml version="1.0" encoding="UTF-8"?>
<svg width="173px" height="70px" viewBox="0 0 173 70" version="1.1" xmlns="http://www.w3.org/2000/svg" xmlns:xlink="http://www.w3.org/1999/xlink">
    <!-- Generator: sketchtool 50.2 (55047) - http://www.bohemiancoding.com/sketch -->
    <title>19C0855D-04CE-460C-9EF4-D415861DCAFF</title>
    <desc>Created with sketchtool.</desc>
    <defs/>
    <g id="Page-1" stroke="none" stroke-width="1" fill="none" fill-rule="evenodd">
        <g id="L&amp;-S-landing-page-SMB" transform="translate(-336.000000, -1037.000000)">
            <g id="Guides" transform="translate(234.000000, 981.000000)">
                <g id="User_guides" transform="translate(103.000000, 57.000000)">
                    <path d="M9.69957983,56.7621053 L2.15546218,17.6084211 C2.15546218,17.6084211 3.23319328,18.1094737 4.67016807,16.6778947" id="Shape" stroke="#BABEC5" stroke-width="1.44" stroke-linecap="round" stroke-linejoin="round"/>
                    <path d="M80.4705882,57.6926316 L56.7605042,64.8505263 C56.7605042,64.8505263 58.0537815,66.7115789 56.0420168,66.9978947 L47.4201681,67.7136842 C46.342437,67.8568421 45.9831933,66.2821053 46.7016807,65.5663158 L7.90336134,65.5663158 C7.18487395,65.5663158 6.75378151,65.0652632 6.61008403,64.4210526 L0,29.0610526" id="Shape" stroke="#BABEC5" stroke-width="1.44" stroke-linecap="round" stroke-linejoin="round"/>
                    <polyline id="Shape" stroke="#BABEC5" stroke-width="1.44" stroke-linecap="round" stroke-linejoin="round" points="67.5378151 5.44 79.7521008 1.86105263 83.3445378 20.4715789"/>
                    <path d="M69.6932773,50.5347368 L87.7273109,44.8084211 C85.0689076,49.0315789 89.092437,50.5347368 89.092437,50.5347368 L54.605042,60.4842105 L45.9831933,61.2715789 L10.7773109,61.2715789 C10.7773109,61.2715789 14.0105042,61.2715789 14.7289916,56.9768421 C16.8844538,56.9768421 35.1340336,56.9768421 35.1340336,56.9768421" id="Shape" stroke="#BABEC5" stroke-width="1.44" stroke-linecap="round" stroke-linejoin="round"/>
                    <path d="M48.8571429,54.1136842 L42.6063025,15.4610526 C42.462605,14.6736842 42.5344538,13.4568421 42.75,12.6694737 C42.75,12.6694737 43.9714286,8.44631579 50.2941176,4.58105263 C56.0420168,1.00210526 60.3529412,0.0715789474 60.3529412,0.0715789474 C61.1432773,-0.0715789474 61.8617647,0.429473684 62.0773109,1.14526316 L70.8428571,44.0926316 C70.9865546,44.88 70.4836134,45.5957895 69.6932773,45.7389474 C69.6932773,45.7389474 64.6638655,46.7410526 59.6344538,49.6042105 C53.239916,53.2547368 51.7310924,55.6884211 51.7310924,55.6884211 C51.3,56.3326316 51.587395,56.6905263 52.3777311,56.4757895 L69.6932773,50.5347368" id="Shape" stroke="#BABEC5" stroke-width="1.44" stroke-linecap="round" stroke-linejoin="round"/>
                    <polyline id="Shape" stroke="#BABEC5" stroke-width="1.44" stroke-linecap="round" stroke-linejoin="round" points="73.2857143 39.0821053 81.907563 36.2189474 76.8781513 10.4505263 68.9747899 13.3136842"/>
                    <path d="M70.4117647,21.9031579 L78.3151261,19.04" id="Shape" stroke="#BABEC5" stroke-width="1.44" stroke-linecap="round" stroke-linejoin="round"/>
                    <path d="M71.8487395,30.4926316 L79.7521008,27.6294737" id="Shape" stroke="#BABEC5" stroke-width="1.44" stroke-linecap="round" stroke-linejoin="round"/>
                    <path d="M50.2941176,38.3663158 L63.9453782,30.4926316" id="Shape" stroke="#BABEC5" stroke-width="1.44" stroke-linecap="round" stroke-linejoin="round"/>
                    <polygon id="Shape" fill="#D4D7DC" fill-rule="nonzero" points="63.2268908 28.3452632 59.6344538 30.4926316 57.4789916 19.7557895 61.0714286 17.6084211"/>
                    <polygon id="Shape" fill="#53B700" fill-rule="nonzero" points="58.197479 31.2084211 54.605042 33.3557895 53.1680672 25.4821053 56.7605042 23.3347368"/>
                    <polygon id="Shape" fill="#D4D7DC" fill-rule="nonzero" points="53.1680672 34.0715789 49.5756303 36.2189474 48.8571429 31.9242105 52.4495798 29.7768421"/>
                    <path d="M69.6932773,17.6084211 L77.5966387,14.7452632" id="Shape" stroke="#BABEC5" stroke-width="1.44" stroke-linecap="round" stroke-linejoin="round"/>
                    <path d="M71.1302521,26.1978947 L79.0336134,23.3347368" id="Shape" stroke="#BABEC5" stroke-width="1.44" stroke-linecap="round" stroke-linejoin="round"/>
                    <path d="M72.5672269,34.7873684 L80.4705882,31.9242105" id="Shape" stroke="#BABEC5" stroke-width="1.44" stroke-linecap="round" stroke-linejoin="round"/>
                    <path d="M25.5063025,20.4715789 C20.6205882,20.4715789 17.2436975,24.3368421 18.0340336,29.0610526 C18.8243697,33.7852632 23.4226891,37.6505263 28.3084034,37.6505263 C33.1941176,37.6505263 36.5710084,33.7852632 35.7806723,29.0610526 C34.9903361,24.3368421 30.4638655,20.4715789 25.5063025,20.4715789 Z M27.6617647,33.4989474 C25.1470588,33.4989474 22.7760504,31.4947368 22.344958,29.0610526 C21.9138655,26.6273684 23.6382353,24.6231579 26.2247899,24.6231579 C28.8113445,24.6231579 31.1105042,26.6273684 31.5415966,29.0610526 C31.9726891,31.4947368 30.1764706,33.4989474 27.6617647,33.4989474 Z" id="Shape" fill="#D4D7DC" fill-rule="nonzero"/>
                    <path d="M26.5840336,43.3768421 L35.2058824,43.3768421" id="Shape" stroke="#BABEC5" stroke-width="1.44" stroke-linecap="round" stroke-linejoin="round"/>
                    <path d="M27.302521,46.9557895 L35.9243697,46.9557895" id="Shape" stroke="#BABEC5" stroke-width="1.44" stroke-linecap="round" stroke-linejoin="round"/>
                    <path d="M28.0210084,50.5347368 L36.6428571,50.5347368" id="Shape" stroke="#BABEC5" stroke-width="1.44" stroke-linecap="round" stroke-linejoin="round"/>
                    <polygon id="Shape" fill="#7FD000" fill-rule="nonzero" points="24.4285714 44.8084211 22.2731092 44.8084211 21.5546218 42.6610526 23.7819328 42.6610526"/>
                    <polygon id="Shape" fill="#53B700" fill-rule="nonzero" points="25.1470588 48.3873684 22.9915966 48.3873684 22.2731092 46.24 24.4285714 46.24"/>
                    <polygon id="Shape" fill="#2CA01C" fill-rule="nonzero" points="25.8655462 51.9663158 23.6382353 51.9663158 22.9915966 49.8189474 25.1470588 49.8189474"/>
                    <polyline id="Shape" stroke="#BABEC5" stroke-width="1.44" stroke-linecap="round" stroke-linejoin="round" points="38.0798319 14.0294737 7.18487395 14.0294737 14.2260504 54.1136842"/>
                    <path d="M71.8487395,12.5978947 L76.8781513,37.6505263" id="Shape" stroke="#53B700" stroke-width="1.44" stroke-linecap="round" stroke-linejoin="round"/>
                    <path d="M30.8231092,21.9747368 L29.0987395,25.4821053 C30.1764706,26.1978947 31.0386555,27.2715789 31.3978992,28.56 L35.5651261,28.0589474 C34.8466387,25.5536842 33.1222689,23.4063158 30.8231092,21.9747368 Z" id="Shape" fill="#7FD000" fill-rule="nonzero"/>
                    <path d="M31.5415966,29.0610526 C31.9726891,31.4947368 30.2483193,33.4989474 27.6617647,33.4989474 C26.6558824,33.4989474 25.5781513,33.1410526 24.7878151,32.5684211 L22.4886555,35.7178947 C24.2130252,36.9347368 26.2247899,37.6505263 28.3802521,37.6505263 C33.2659664,37.6505263 36.6428571,33.7852632 35.852521,29.0610526 C35.7806723,28.7031579 35.7088235,28.3452632 35.5651261,27.9873684 L31.3978992,28.56 C31.4697479,28.7031579 31.4697479,28.8463158 31.5415966,29.0610526 Z" id="Shape" fill="#2CA01C" fill-rule="nonzero"/>
                    <path d="M157.061345,13.3852632 C158.139076,14.3873684 158.139076,16.1052632 157.061345,17.1073684 C155.768067,18.3957895 153.612605,18.3957895 152.319328,17.1073684 C150.666807,15.5326316 150.666807,12.8842105 152.319328,11.3094737 C154.402941,9.30526316 157.707983,9.30526316 159.719748,11.3094737 C162.306303,13.8147368 162.306303,17.8947368 159.719748,20.4 C156.486555,23.5494737 151.313445,23.5494737 148.080252,20.4 C144.056723,16.4631579 144.056723,10.1642105 148.080252,6.22736842 C153.109664,1.36 161.228571,1.36 166.257983,6.22736842 C172.508824,12.3115789 172.508824,22.2610526 166.257983,28.3452632 C158.498319,36.0042105 146.715126,34.9305263 137.94958,28.3452632 C123.579832,17.6084211 104.89916,8.30315789 83.3445378,20.4715789" id="Shape" stroke="#B9BCC3" stroke-width="1.44" stroke-linecap="round" stroke-linejoin="round" stroke-dasharray="1.440000021457672,2.880000042915345"/>
                    <path d="M121.136975,52.1094737 C122.430252,51.5368421 123.076891,49.8905263 122.57395,48.5305263 C121.927311,46.8126316 120.131092,46.0252632 118.478571,46.8126316 C116.466807,47.7431579 115.389076,50.2484211 116.179412,52.3242105 C117.185294,54.9726316 120.059244,56.1894737 122.57395,55.0442105 C125.807143,53.6126316 127.387815,49.6757895 126.094538,46.3831579 C124.513866,42.2315789 120.059244,40.2989474 116.035714,42.16 C111.006303,44.4505263 108.563445,50.5347368 110.503361,55.6884211 C112.946218,62.2021053 119.915546,65.1368421 126.166387,62.2736842 C134.069748,58.7663158 137.015546,50.2484211 134.357143,41.9452632 C130.980252,31.3515789 118.55042,22.3326316 103.462185,22.6189474" id="Shape" stroke="#B9BCC3" stroke-width="1.44" stroke-linecap="round" stroke-linejoin="round" stroke-dasharray="1.440000021457672,2.880000042915345"/>
                    <path d="M84.0630252,23.3347368 L87.6554622,41.9452632" id="Shape" stroke="#BABEC5" stroke-width="1.44" stroke-linecap="round" stroke-linejoin="round"/>
                </g>
            </g>
        </g>
    </g>
</svg>