<?xml version="1.0" encoding="UTF-8"?>
<svg width="114px" height="83px" viewBox="0 0 114 83" version="1.1" xmlns="http://www.w3.org/2000/svg" xmlns:xlink="http://www.w3.org/1999/xlink">
    <!-- Generator: sketchtool 50.2 (55047) - http://www.bohemiancoding.com/sketch -->
    <title>0244B84C-F7C3-4A47-81FA-7D5E3782257F</title>
    <desc>Created with sketchtool.</desc>
    <defs/>
    <g id="Page-1" stroke="none" stroke-width="1" fill="none" fill-rule="evenodd">
        <g id="L&amp;-S-landing-page-SMB" transform="translate(-359.000000, -592.000000)">
            <g id="Video-tutorials" transform="translate(234.000000, 543.000000)">
                <g id="smb_lifestyle_video-tutorials" transform="translate(126.000000, 50.000000)">
                    <path d="M59.9769231,22.3646018 L56.4275641,20.3575221 C55.7032051,19.9274336 55.7032051,19.2823009 56.3551282,18.780531 L58.9628205,16.9884956" id="Shape" stroke="#B7BBC3" stroke-width="1.44" stroke-linecap="round" stroke-linejoin="round"/>
                    <path d="M82.2871795,10.6088496 L90.6897436,10.6088496 C91.4865385,10.6088496 91.9211538,11.2539823 91.6314103,11.9707965 L80.9833333,42.3637168 C80.6935897,43.080531 80.4762821,44.3707965 80.4038462,45.159292 L79.5346154,61.0725664" id="Shape" stroke="#B7BBC3" stroke-width="1.44" stroke-linecap="round" stroke-linejoin="round"/>
                    <path d="M60.9185897,60.2123894 L60.9185897,70.7495575 C60.9185897,71.5380531 61.5705128,72.3265487 62.2948718,72.5415929 L74.2467949,75.5522124" id="Shape" stroke="#B7BBC3" stroke-width="1.44" stroke-linecap="round" stroke-linejoin="round"/>
                    <path d="M60.9185897,72.1831858 L46.5762821,75.5522124" id="Shape" stroke="#B7BBC3" stroke-width="1.44" stroke-linecap="round" stroke-linejoin="round"/>
                    <ellipse id="Oval" stroke="#B7BBC3" stroke-width="1.44" stroke-linecap="round" stroke-linejoin="round" cx="73.6673077" cy="79.2079646" rx="1.44871795" ry="1.43362832"/>
                    <ellipse id="Oval" stroke="#B7BBC3" stroke-width="1.44" stroke-linecap="round" stroke-linejoin="round" cx="60.3391026" cy="79.2079646" rx="1.44871795" ry="1.43362832"/>
                    <ellipse id="Oval" stroke="#B7BBC3" stroke-width="1.44" stroke-linecap="round" stroke-linejoin="round" cx="46.9384615" cy="79.2079646" rx="1.44871795" ry="1.43362832"/>
                    <path d="M69.1762821,27.2389381 C66.8583333,28.0274336 64.3230769,26.7371681 63.5987179,24.4433628" id="Shape" stroke="#B7BBC3" stroke-width="1.44" stroke-linecap="round" stroke-linejoin="round"/>
                    <path d="M47.4455128,59.2088496 L79.4621795,61.0725664" id="Shape" stroke="#B7BBC3" stroke-width="1.44" stroke-linecap="round" stroke-linejoin="round"/>
                    <path d="M62.15,7.74159292 L50.4878205,16.6300885 C48.0974359,18.4938053 48.2423077,22.1495575 50.85,23.7265487 L57.0794872,27.6690265 L50.4153846,38.1345133 C49.9807692,38.8513274 50.1980769,39.7115044 50.9224359,40.1415929 C50.9224359,40.1415929 60.2666667,43.1522124 63.5262821,46.879646" id="Shape" stroke="#B7BBC3" stroke-width="1.44" stroke-linecap="round" stroke-linejoin="round"/>
                    <path d="M4.34615385,62.0044248 L26.8012821,62.0044248 L26.8012821,57.0584071 C26.8012821,55.9831858 25.7871795,54.8362832 24.700641,54.8362832 L16.225641,54.8362832 L34.1897436,51.0371681 L42.3025641,52.4707965" id="Shape" stroke="#B7BBC3" stroke-width="1.44" stroke-linecap="round" stroke-linejoin="round"/>
                    <path d="M26.8012821,64.8716814 L26.8012821,79.9247788 L0,79.9247788 L0,57.0584071 C0,55.9831858 0.579487179,54.8362832 1.66602564,54.8362832" id="Shape" stroke="#B7BBC3" stroke-width="1.44" stroke-linecap="round" stroke-linejoin="round"/>
                    <path d="M8.475,57.9185841 L8.475,77.0575221" id="Shape" stroke="#B7BBC3" stroke-width="1.44" stroke-linecap="round" stroke-linejoin="round"/>
                    <path d="M76.8544872,17.4902655 L79.6794872,19.640708" id="Shape" stroke="#B7BBC3" stroke-width="1.44" stroke-linecap="round" stroke-linejoin="round"/>
                    <path d="M46.9384615,38.9946903 L26.4391026,38.9946903 C25.6423077,38.9946903 24.8455128,38.3495575 24.6282051,37.6327434 L19.9198718,20.3575221 C19.7025641,19.5690265 20.2096154,18.9955752 21.0064103,18.9955752 L28.6846154,18.9955752 C29.4814103,18.9955752 30.2782051,19.640708 30.4955128,20.3575221 L34.3346154,36.2707965" id="Shape" stroke="#B7BBC3" stroke-width="1.44" stroke-linecap="round" stroke-linejoin="round"/>
                    <path d="M6.95384615,37.7044248 L6.80897436,31.2530973 C6.80897436,30.8946903 7.09871795,30.4646018 7.53333333,30.3929204 L8.04038462,30.3212389 C8.4025641,30.2495575 8.90961538,30.4646018 9.05448718,30.8230088 L12.6762821,38.3495575 C12.8211538,38.7079646 13.3282051,38.9946903 13.6903846,38.9946903 L21.9480769,38.9946903" id="Shape" stroke="#B7BBC3" stroke-width="1.44" stroke-linecap="round" stroke-linejoin="round"/>
                    <path d="M10.3583333,48.0265487 L6.37435897,40.5716814 C6.15705128,40.2132743 5.7224359,39.9982301 5.36025641,40.0699115 L4.85320513,40.1415929 C4.49102564,40.2132743 4.12884615,40.5716814 4.12884615,41.0017699 L4.56346154,54.1911504 C4.56346154,54.5495575 4.92564103,54.9079646 5.28782051,54.9079646 L12.6762821,54.9079646 C13.0384615,54.9079646 13.400641,54.5495575 13.400641,54.1911504 L13.400641,47.1663717 C13.400641,46.7362832 13.6903846,46.3778761 14.125,46.3061947 L33.3929487,42.5070796 C33.7551282,42.4353982 34.4070513,42.4353982 34.8416667,42.5070796 L55.1237179,46.6646018" id="Shape" stroke="#B7BBC3" stroke-width="1.44" stroke-linecap="round" stroke-linejoin="round"/>
                    <path d="M64.250641,3.44070796 L59.6147436,12.6876106 C58.3833333,15.1964602 59.6147436,17.8486726 62.15,19.0672566 L66.2788462,21.0743363" id="Shape" stroke="#B7BBC3" stroke-width="1.44" stroke-linecap="round" stroke-linejoin="round"/>
                    <path d="M71.6391026,27.9557522 L79.824359,11.4690265 C80.9833333,9.17522124 79.8967949,5.66283186 77.5788462,4.5159292 L75.1884615,3.36902655 L75.6955128,2.36548673 C73.8121795,1.7920354 71.4217949,2.15044248 71.4217949,2.15044248 L72.0012821,1.00353982 C72.0012821,1.00353982 66.2788462,-0.573451327 64.3230769,3.29734513 L64.250641,3.36902655" id="Shape" stroke="#B7BBC3" stroke-width="1.44" stroke-linecap="round" stroke-linejoin="round"/>
                    <path d="M62.3673077,7.23982301 L64.9025641,8.45840708 C65.6269231,8.81681416 65.9166667,9.67699115 65.5544872,10.3938053 L64.6852564,12.1141593" id="Shape" stroke="#B7BBC3" stroke-width="1.44" stroke-linecap="round" stroke-linejoin="round"/>
                    <path d="M63.3814103,13.8345133 C63.3814103,13.8345133 63.0916667,15.1247788 64.7576923,15.9132743 C66.4237179,16.7017699 67.2205128,15.6982301 67.2205128,15.6982301" id="Shape" stroke="#B7BBC3" stroke-width="1.44" stroke-linecap="round" stroke-linejoin="round"/>
                    <path d="M71.4217949,16.8451327 C71.4217949,16.8451327 73.5948718,17.6336283 74.3916667,15.9132743 C75.1884615,14.2646018 73.5224359,13.1176991 73.5224359,13.1176991 L75.6230769,8.96017699 C75.6230769,8.96017699 72.4358974,8.88849558 69.1762821,7.23982301 C66.5685897,5.94955752 65.8442308,4.22920354 65.8442308,4.22920354" id="Shape" stroke="#B7BBC3" stroke-width="1.44" stroke-linecap="round" stroke-linejoin="round"/>
                    <path d="M42.2301282,52.4707965 L37.3769231,52.1123894 C35.7833333,52.040708 34.3346154,53.259292 34.3346154,54.9079646 L34.2621795,58.420354 L44.6929487,59.0654867 L44.7653846,55.5530973 C44.8378205,53.9761062 46.2141026,52.6858407 47.8076923,52.7575221 L60.8461538,53.4026549 L62.5121795,53.4743363 C65.7717949,53.4743363 68.0173077,51.8256637 69.1762821,49.3168142 L75.4782051,34.1920354 C75.6955128,33.8336283 75.9128205,33.4752212 76.275,33.1884956 L87.0679487,22.9380531 C89.3134615,21.0743363 88.7339744,17.5619469 86.0538462,16.4150442 L79.3173077,12.2575221" id="Shape" stroke="#B7BBC3" stroke-width="1.44" stroke-linecap="round" stroke-linejoin="round"/>
                    <path d="M31.6544872,37.2026549 L26.8737179,37.2026549 C26.5115385,37.2026549 26.2217949,36.9876106 26.149359,36.6292035 L22.3102564,21.6477876 C22.1653846,21.2176991 22.5275641,20.7876106 23.0346154,20.7876106 L27.8153846,20.7876106 C28.1775641,20.7876106 28.4673077,21.0026549 28.5397436,21.3610619 L32.3788462,36.3424779 C32.5237179,36.700885 32.1615385,37.2026549 31.6544872,37.2026549 Z" id="Shape" fill="#53B700" fill-rule="nonzero"/>
                    <polyline id="Shape" stroke="#B7BBC3" stroke-width="1.44" stroke-linecap="round" stroke-linejoin="round" points="98.0782051 48.6 98.0782051 39.7831858 90.6897436 39.7831858 90.6897436 48.6"/>
                    <path d="M98.0782051,41.9336283 C99.8166667,41.9336283 101.192949,42.2920354 101.192949,43.7256637 C101.192949,45.159292 99.8166667,47.0946903 98.0782051,47.0946903" id="Shape" stroke="#B7BBC3" stroke-width="1.44" stroke-linecap="round" stroke-linejoin="round"/>
                    <path d="M102.641667,53.6176991 L110.754487,53.6176991 L112.348077,50.7504425 L85.4019231,50.7504425 L86.9955128,53.6176991 L100.10641,53.6176991 L100.10641,74.7637168 C104.742308,74.7637168 108.94359,76.7707965 111.76859,79.9247788 L88.3717949,79.9247788 C90.5448718,77.4876106 93.5147436,75.7672566 96.9192308,75.1221239" id="Shape" stroke="#B7BBC3" stroke-width="1.44" stroke-linecap="round" stroke-linejoin="round"/>
                    <path d="M65.5544872,57.1300885 C68.6692308,57.1300885 71.2769231,55.1946903 72.2910256,52.4707965" id="Shape" stroke="#B7BBC3" stroke-width="1.44" stroke-linecap="round" stroke-linejoin="round"/>
                </g>
            </g>
        </g>
    </g>
</svg>