<?xml version="1.0" encoding="UTF-8"?>
<svg width="146px" height="111px" viewBox="0 0 146 111" version="1.1" xmlns="http://www.w3.org/2000/svg" xmlns:xlink="http://www.w3.org/1999/xlink">
    <!-- Generator: sketchtool 50.2 (55047) - http://www.bohemiancoding.com/sketch -->
    <title>8DFC38FD-0A94-46DF-98AB-573F248D5294</title>
    <desc>Created with sketchtool.</desc>
    <defs/>
    <g id="Page-1" stroke="none" stroke-width="1" fill="none" fill-rule="evenodd">
        <g id="L&amp;-S-landing-page-SMB" transform="translate(-1096.000000, -578.000000)">
            <g id="Group-2" transform="translate(1001.000000, 543.000000)">
                <g id="finding_info_knowledge-base" transform="translate(94.000000, 36.000000)">
                    <ellipse id="Oval" fill="#7FD000" fill-rule="nonzero" cx="111.505495" cy="73.7352941" rx="16.8461538" ry="16.8308824"/>
                    <path d="M125.142857,73.7352941 C125.142857,81.2691176 119.046154,87.3602941 111.505495,87.3602941" id="Shape" stroke="#FFFFFF" stroke-width="1.6"/>
                    <path d="M138.78022,80.9485294 L138.78022,43.2794118 C138.78022,42.3977941 138.298901,41.1955882 137.657143,40.5544118 L122.254945,25.1661765 C121.613187,24.525 121.131868,24.7654412 121.131868,25.6470588 L121.131868,40.0735294 C121.131868,40.9551471 121.853846,41.6764706 122.736264,41.6764706 L133.967033,41.6764706" id="Shape" stroke="#BABEC5" stroke-width="1.6" stroke-linecap="round" stroke-linejoin="round"/>
                    <path d="M42.5164835,56.1029412 L42.5164835,39.2720588 C42.5164835,38.3904412 43.2384615,37.6691176 44.1208791,37.6691176 L76.2087912,37.6691176" id="Shape" stroke="#BABEC5" stroke-width="1.6" stroke-linecap="round" stroke-linejoin="round"/>
                    <path d="M36.0989011,75.3382353 L36.0989011,61.7132353 C36.0989011,60.3507353 37.1417582,59.3088235 38.5054945,59.3088235 L40.1098901,59.3088235 C41.4736264,59.3088235 42.5164835,60.3507353 42.5164835,61.7132353 L42.5164835,107.397059 C42.5164835,108.278676 43.2384615,109 44.1208791,109 L100.274725,109 C101.157143,109 101.879121,108.278676 101.879121,107.397059 L101.879121,96.9779412 C101.879121,96.0963235 101.157143,95.375 100.274725,95.375 L81.021978,95.4551471 C80.1395604,95.4551471 79.4175824,94.7338235 79.4175824,93.8522059 L79.4175824,25.6470588 C79.4175824,24.7654412 80.2197802,24.0441176 81.1021978,24.0441176 L115.516484,24.0441176 C116.88022,24.0441176 117.923077,23.0022059 117.923077,21.6397059 L117.923077,20.0367647 C117.923077,18.6742647 116.88022,17.6323529 115.516484,17.6323529 L97.8681319,17.6323529 C95.621978,17.6323529 93.8571429,15.8691176 93.8571429,13.625 L93.8571429,10.4191176" id="Shape" stroke="#BABEC5" stroke-width="1.6" stroke-linecap="round" stroke-linejoin="round"/>
                    <path d="M24.0659341,97.7794118 L32.0879121,97.7794118 C34.3340659,97.7794118 36.0989011,96.0161765 36.0989011,93.7720588 L36.0989011,75.3382353" id="Shape" stroke="#BABEC5" stroke-width="1.6" stroke-linecap="round" stroke-linejoin="round"/>
                    <path d="M27.2747253,97.7794118 L18.4505495,97.7794118 C16.2043956,97.7794118 14.4395604,96.0161765 14.4395604,93.7720588 L14.4395604,73.7352941 C14.4395604,71.4911765 12.6747253,69.7279412 10.4285714,69.7279412 L0,69.7279412" id="Shape" stroke="#BABEC5" stroke-width="1.6" stroke-linecap="round" stroke-dasharray="1.6,3.2"/>
                    <path d="M93.8571429,13.625 L93.8571429,4.00735294 C93.8571429,1.76323529 95.621978,0 97.8681319,0 L146,0.0801470588" id="Shape" stroke="#BABEC5" stroke-width="1.6" stroke-linecap="round" stroke-dasharray="1.6,3.2"/>
                    <path d="M104.526374,66.4419118 C104.767033,65.6404412 105.168132,64.9992647 105.72967,64.4382353 C106.291209,63.8772059 106.932967,63.4764706 107.654945,63.1558824 C108.457143,62.8352941 109.259341,62.675 110.302198,62.675 C111.104396,62.675 111.746154,62.7551471 112.468132,62.9955882 C113.10989,63.2360294 113.751648,63.5566176 114.232967,63.9573529 C114.714286,64.3580882 115.115385,64.9191176 115.436264,65.5602941 C115.757143,66.2014706 115.837363,66.9227941 115.837363,67.7242647 C115.837363,68.7661765 115.596703,69.5676471 115.195604,70.2889706 C114.714286,71.0102941 114.152747,71.6514706 113.510989,72.3727941 C112.949451,72.9338235 112.468132,73.4147059 112.147253,73.6551471 C111.826374,73.9757353 111.585714,74.2963235 111.425275,74.6169118 C111.264835,74.9375 111.184615,75.3382353 111.104396,75.7389706 C111.024176,76.2198529 111.024176,76.8610294 111.024176,77.6625 L109.33956,77.6625 C109.33956,76.8610294 109.33956,76.1397059 109.5,75.5786765 C109.58022,75.0176471 109.820879,74.5367647 110.061538,74.0558824 C110.302198,73.575 110.623077,73.1742647 111.024176,72.7735294 C111.425275,72.3727941 111.906593,71.8919118 112.548352,71.3308824 C113.02967,70.85 113.510989,70.3691176 113.831868,69.7279412 C114.152747,69.1669118 114.313187,68.5257353 114.313187,67.8044118 C114.313187,67.2433824 114.232967,66.7625 113.992308,66.2816176 C113.751648,65.8007353 113.510989,65.4801471 113.10989,65.1595588 C112.789011,64.8389706 112.307692,64.5985294 111.906593,64.4382353 C111.425275,64.2779412 110.943956,64.1977941 110.382418,64.1977941 C109.66044,64.1977941 109.018681,64.3580882 108.457143,64.5985294 C107.895604,64.8389706 107.414286,65.2397059 107.093407,65.6404412 C106.692308,66.1213235 106.451648,66.6022059 106.291209,67.2433824 C106.130769,67.8845588 106.050549,68.5257353 106.050549,69.1669118 L104.365934,69.1669118 C104.125275,68.125 104.285714,67.2433824 104.526374,66.4419118 Z M111.264835,79.6661765 L111.264835,82.5514706 L108.938462,82.5514706 L108.938462,79.6661765 L111.264835,79.6661765 Z" id="Shape" fill="#FFFFFF" fill-rule="nonzero"/>
                    <path d="M59.3626374,60.9117647 L73.8021978,60.9117647" id="Shape" stroke="#BABEC5" stroke-width="1.6" stroke-linecap="round" stroke-linejoin="round"/>
                    <path d="M59.3626374,54.5 L73.8021978,54.5" id="Shape" stroke="#BABEC5" stroke-width="1.6" stroke-linecap="round" stroke-linejoin="round"/>
                    <path d="M59.3626374,67.3235294 L73.8021978,67.3235294" id="Shape" stroke="#BABEC5" stroke-width="1.6" stroke-linecap="round" stroke-linejoin="round"/>
                    <path d="M59.3626374,80.1470588 L73.8021978,80.1470588" id="Shape" stroke="#BABEC5" stroke-width="1.6" stroke-linecap="round" stroke-linejoin="round"/>
                    <path d="M59.3626374,92.9705882 L73.8021978,92.9705882" id="Shape" stroke="#BABEC5" stroke-width="1.6" stroke-linecap="round" stroke-linejoin="round"/>
                    <path d="M59.3626374,73.7352941 L73.8021978,73.7352941" id="Shape" stroke="#BABEC5" stroke-width="1.6" stroke-linecap="round" stroke-linejoin="round"/>
                    <path d="M59.3626374,86.5588235 L73.8021978,86.5588235" id="Shape" stroke="#BABEC5" stroke-width="1.6" stroke-linecap="round" stroke-linejoin="round"/>
                    <path d="M73.8021978,48.0882353 L61.0472527,48.0882353 C60.1648352,48.0882353 59.3626374,48.6492647 59.3626374,49.5308824 L59.3626374,98.0198529 C59.3626374,98.9014706 60.1648352,99.4625 61.0472527,99.4625 L73.8021978,99.4625" id="Shape" stroke="#BABEC5" stroke-width="1.6" stroke-linecap="round" stroke-linejoin="round"/>
                    <path d="M55.3516484,47.2867647 C55.3516484,46.8058824 55.0307692,46.4852941 54.5494505,46.4852941 L50.5384615,46.4852941 C50.0571429,46.4852941 49.7362637,46.8058824 49.7362637,47.2867647 L49.7362637,99.3823529 C49.7362637,99.8632353 50.0571429,100.183824 50.5384615,100.183824 L54.5494505,100.183824 C55.0307692,100.183824 55.3516484,99.8632353 55.3516484,99.3823529 L55.3516484,47.2867647 Z" id="Shape" fill="#53B700" fill-rule="nonzero"/>
                    <path d="M125.142857,88.4022059 C125.543956,88.0816176 125.864835,87.7610294 126.185714,87.3602941 L129.153846,90.3257353 C129.474725,90.6463235 129.956044,90.6463235 130.276923,90.3257353 L131.4,89.2036765 C131.720879,88.8830882 132.202198,88.8830882 132.523077,89.2036765 L144.796703,101.466176 C145.91978,102.588235 145.91978,104.351471 144.796703,105.473529 C143.673626,106.595588 141.908791,106.595588 140.785714,105.473529 L128.351648,92.9705882" id="Shape" stroke="#BABEC5" stroke-width="1.6" stroke-linecap="round" stroke-linejoin="round"/>
                    <path d="M130.196703,80.9485294 C131.159341,79.025 131.56044,76.3 131.56044,73.7352941 C131.56044,62.2742647 121.853846,52.9772059 110.221978,53.6985294 C100.274725,54.3397059 92.0923077,62.4345588 91.4505495,72.4529412 C90.7285714,84.0742647 99.9538462,93.7720588 111.505495,93.7720588 C116.559341,93.7720588 121.693407,91.5279412 125.142857,88.4022059" id="Shape" stroke="#BABEC5" stroke-width="1.6" stroke-linecap="round" stroke-linejoin="round"/>
                    <path d="M88.2417582,33.6617647 L112.307692,33.6617647" id="Shape" stroke="#BABEC5" stroke-width="1.6" stroke-linecap="round" stroke-linejoin="round"/>
                    <path d="M88.2417582,40.0735294 L109.098901,40.0735294 C110.863736,40.0735294 112.307692,41.5161765 112.307692,43.2794118 C112.307692,45.0426471 110.863736,46.4852941 109.098901,46.4852941 L91.4505495,46.4852941 C89.6857143,46.4852941 88.2417582,47.9279412 88.2417582,49.6911765 C88.2417582,51.4544118 89.6857143,52.8970588 91.4505495,52.8970588 L95.4615385,52.8970588" id="Shape" stroke="#BABEC5" stroke-width="1.6" stroke-linecap="round" stroke-linejoin="round"/>
                </g>
            </g>
        </g>
    </g>
</svg>