<?xml version="1.0" encoding="UTF-8"?>
<svg width="182px" height="76px" viewBox="0 0 182 76" version="1.1" xmlns="http://www.w3.org/2000/svg" xmlns:xlink="http://www.w3.org/1999/xlink">
    <!-- Generator: sketchtool 50.2 (55047) - http://www.bohemiancoding.com/sketch -->
    <title>A414A539-33B1-486D-BA04-CA16D37BF2BD</title>
    <desc>Created with sketchtool.</desc>
    <defs/>
    <g id="Page-1" stroke="none" stroke-width="1" fill="none" fill-rule="evenodd">
        <g id="L&amp;-S-landing-page-SMB" transform="translate(-1094.000000, -1052.000000)">
            <g id="Business-advice" transform="translate(1002.000000, 981.000000)">
                <g transform="translate(93.000000, 72.000000)" id="Shape">
                    <path d="M164.594595,74 L164.594595,15.8571429 C164.594595,7.48131868 157.459459,0 149.189189,0 L135.081081,0 C129,0 124.054054,5.69230769 124.054054,11.7912088 L124.054054,29.9252747 C124.054054,36.0241758 129,40.6593407 135.081081,40.6593407 L141.891892,40.6593407" stroke="#BABEC5" stroke-width="1.62" stroke-linecap="round"/>
                    <path d="M124.054054,18.7032967 L132.162162,18.7032967 C133.054054,18.7032967 133.783784,19.4351648 133.783784,20.3296703 L133.783784,26.8351648" stroke="#BABEC5" stroke-width="1.62" stroke-linecap="round"/>
                    <path d="M128.918919,7.31868132 C133.459459,12.4417582 141,10.3274725 141,10.3274725 C141,10.3274725 147.324324,18.0527473 153.081081,18.2967033 C153.081081,18.2967033 158.108108,17.8901099 158.108108,23.2571429 C158.108108,28.6241758 153.081081,28.2175824 153.081081,28.2175824 C153.081081,28.2175824 144.324324,42.4483516 144.324324,74" stroke="#BABEC5" stroke-width="1.884951" stroke-linecap="round"/>
                    <path d="M118.378378,74 L118.378378,61.7208791 C118.378378,54.5648352 123.891892,48.7912088 131.108108,48.7912088 L135.081081,48.7912088 C135.081081,48.7912088 134.108108,58.7120879 144.324324,58.5494505" stroke="#BABEC5" stroke-width="1.62" stroke-linecap="round"/>
                    <path d="M180,74 L180,61.7208791 C180,54.5648352 174.405405,48.7912088 167.189189,48.7912088 L164.594595,48.7912088" stroke="#BABEC5" stroke-width="1.62" stroke-linecap="round"/>
                    <path d="M142.702703,30.9010989 C142.702703,30.9010989 141,34.1538462 137.027027,34.1538462 C133.054054,34.1538462 131.351351,30.9010989 131.351351,30.9010989" stroke="#BABEC5" stroke-width="1.884951" stroke-linecap="round"/>
                    <path d="M157.297297,10.5714286 L150,10.5714286" stroke="#BABEC5" stroke-width="1.62" stroke-linecap="round"/>
                    <path d="M129.72973,61.8021978 C127.297297,63.1846154 125.675676,65.2989011 125.675676,68.3076923 C125.675676,70.3406593 126.891892,72.6175824 128.108108,74" stroke="#BABEC5" stroke-width="1.884951" stroke-linecap="round"/>
                    <path d="M90,25.2087912 C90,25.2087912 90,16.5076923 98.9189189,17.8901099 C98.9189189,17.8901099 99.7297297,25.2087912 90,25.2087912 Z" stroke="#BABEC5" stroke-width="1.884951" stroke-linecap="round"/>
                    <path d="M43.7837838,18.7032967 C43.7837838,18.7032967 43.7837838,9.18901099 52.7027027,10.5714286 C52.7027027,10.5714286 53.5135135,18.7032967 43.7837838,18.7032967 Z" stroke="#BABEC5" stroke-width="1.884951" stroke-linecap="round"/>
                    <path d="M13.7837838,41.4725275 C13.7837838,41.4725275 13.7837838,31.1450549 22.7027027,32.5274725 C22.7027027,32.5274725 23.5135135,41.4725275 13.7837838,41.4725275 Z" fill="#53B700" fill-rule="nonzero"/>
                    <path d="M88.3783784,39.8461538 C88.3783784,39.8461538 88.0540541,32.1208791 79.4594595,32.5274725 C79.4594595,32.5274725 78.6486486,39.8461538 88.3783784,39.8461538 Z" fill="#53B700" fill-rule="nonzero"/>
                    <path d="M79.4594595,20.3296703 C79.4594595,20.3296703 79.1351351,12.6043956 70.5405405,13.010989 C70.5405405,13.010989 69.7297297,20.3296703 79.4594595,20.3296703 Z" fill="#53B700" fill-rule="nonzero"/>
                    <path d="M97.2972973,5.69230769 C97.2972973,5.69230769 96.972973,13.4175824 88.3783784,13.010989 C88.3783784,13.010989 87.5675676,5.69230769 97.2972973,5.69230769 Z" fill="#53B700" fill-rule="nonzero"/>
                    <path d="M109.459459,21.956044 C109.459459,21.956044 109.135135,29.6813187 100.540541,29.2747253 C100.540541,29.2747253 99.7297297,21.956044 109.459459,21.956044 Z" fill="#53B700" fill-rule="nonzero"/>
                    <path d="M55.9459459,34.1538462 C55.9459459,34.1538462 55.9459459,24.6395604 47.027027,26.021978 C47.027027,26.021978 46.2162162,34.1538462 55.9459459,34.1538462 Z" fill="#53B700" fill-rule="nonzero"/>
                    <path d="M9.72972973,40.6593407 C9.72972973,40.6593407 10.5405405,31.9582418 1.62162162,33.3406593 C1.62162162,33.3406593 2.22044605e-16,40.6593407 9.72972973,40.6593407 Z" stroke="#BABEC5" stroke-width="1.884951" stroke-linecap="round"/>
                    <path d="M45.4054054,47.978022 C45.4054054,47.978022 45.4054054,39.2769231 36.4864865,40.6593407 C36.4864865,40.6593407 35.6756757,47.978022 45.4054054,47.978022 Z" stroke="#BABEC5" stroke-width="1.884951" stroke-linecap="round"/>
                    <path d="M40.5405405,19.5164835 L40.5405405,31.8769231 C40.5405405,32.7714286 41.027027,33.9912088 41.6756757,34.6417582 L48.3243243,41.3098901 C48.972973,41.9604396 49.4594595,43.1802198 49.4594595,44.0747253 L49.4594595,52.043956 C49.4594595,52.9384615 50.1891892,53.6703297 51.0810811,53.6703297 L60.8108108,53.6703297 C61.7027027,53.6703297 62.3513514,54.4021978 62.2702703,55.2967033 L60.2432432,72.3736264 C60.1621622,73.2681319 59.3513514,74 58.4594595,74 L41.4324324,74 C40.5405405,74 39.7297297,73.2681319 39.6486486,72.3736264 L37.6216216,55.2967033 C37.5405405,54.4021978 38.1891892,53.6703297 39.0810811,53.6703297 L46.3783784,53.6703297" stroke="#BABEC5" stroke-width="1.62" stroke-linecap="round"/>
                    <path d="M49.4594595,47.978022 L59.6756757,37.7318681 C60.3243243,37.0813187 60.8108108,35.8615385 60.8108108,34.967033 L60.8108108,23.5824176" stroke="#BABEC5" stroke-width="1.62" stroke-linecap="round"/>
                    <path d="M91.6216216,53.6703297 L98.1081081,53.6703297 C99,53.6703297 99.6486486,54.4021978 99.5675676,55.2967033 L97.4594595,72.3736264 C97.3783784,73.2681319 96.5675676,74 95.6756757,74 L78.6486486,74 C77.7567568,74 76.9459459,73.2681319 76.8648649,72.3736264 L74.8378378,55.2967033 C74.7567568,54.4021978 75.4054054,53.6703297 76.2972973,53.6703297 L86.8378378,53.6703297 C87.7297297,53.6703297 88.4594595,52.9384615 88.4594595,52.043956 L88.4594595,43.9120879 C88.4594595,43.0175824 88.9459459,41.7978022 89.5945946,41.1472527 L99.7297297,30.9010989" stroke="#BABEC5" stroke-width="1.62" stroke-linecap="round"/>
                    <path d="M94.0540541,36.5934066 L83.8378378,26.3472527 C83.1891892,25.6967033 82.7027027,24.4769231 82.7027027,23.5824176 L82.7027027,8.94505495" stroke="#BABEC5" stroke-width="1.62" stroke-linecap="round"/>
                    <path d="M88.3783784,50.4175824 L76.5405405,38.5450549 C75.8918919,37.8945055 75.4054054,36.6747253 75.4054054,35.7802198 L75.4054054,22.7692308" stroke="#BABEC5" stroke-width="1.62" stroke-linecap="round"/>
                    <path d="M15.4054054,53.6703297 L23.5135135,53.6703297 C24.4054054,53.6703297 25.0540541,54.4021978 24.972973,55.2967033 L22.9459459,72.3736264 C22.8648649,73.2681319 22.0540541,74 21.1621622,74 L4.13513514,74 C3.24324324,74 2.43243243,73.2681319 2.35135135,72.3736264 L0.324324324,55.2967033 C0.243243243,54.4021978 0.891891892,53.6703297 1.78378378,53.6703297 L10.7027027,53.6703297 C11.5945946,53.6703297 12.3243243,52.9384615 12.3243243,52.043956 L12.3243243,44.7252747" stroke="#BABEC5" stroke-width="1.62" stroke-linecap="round"/>
                </g>
            </g>
        </g>
    </g>
</svg>