<?xml version="1.0" encoding="UTF-8"?>
<svg width="112px" height="112px" viewBox="0 0 112 112" version="1.1" xmlns="http://www.w3.org/2000/svg" xmlns:xlink="http://www.w3.org/1999/xlink">
    <!-- Generator: Sketch 47.1 (45422) - http://www.bohemiancoding.com/sketch -->
    <title>Miscellaneous_15</title>
    <desc>Created with Sketch.</desc>
    <defs/>
    <g id="ICON-SIZED-(Name-updates)" stroke="none" stroke-width="1" fill="none" fill-rule="evenodd" stroke-linecap="round" stroke-linejoin="round">
        <g id="Miscellaneous_15">
            <path d="M18,53 L20.5,63.1 C20.8,64.1 21.9,65 23,65 L23,65 C24.1,65 25,65.9 25,67 L25,88" id="Shape" stroke="#BABEC5" stroke-width="2"/>
            <path d="M29,57 C29.3,48.2 23,48 23,48 L21.8,44.7 C21.2,42.4 18.9,41 16.6,41.6 L15,42 L18,53" id="Shape" stroke="#BABEC5" stroke-width="2"/>
            <path d="M23,39 L23,27 L30.8,27 C36.5,27 41,31.3 41,37 L41,106 C41,107.4 39.4,108.5 38.1,108 C16.1,100.4 0.5,79.4 1,54.7 C1.7,25.7 25.2,2 54.2,1 C86,3.33066907e-15 112,26 111,57.8 C110,86.8 86.3,110.3 57.3,111 C53,111.1 48.9,110.7 44.9,109.9" id="Shape" stroke="#BABEC5" stroke-width="2"/>
            <path d="M29,27 L29,44" id="Shape" stroke="#BABEC5" stroke-width="2"/>
            <path d="M35,28 L35,47" id="Shape" stroke="#BABEC5" stroke-width="2"/>
            <path d="M72,53 L74.5,63.1 C74.8,64.1 75.9,65 77,65 L77,65 C78.1,65 79,65.9 79,67 L79,92" id="Shape" stroke="#BABEC5" stroke-width="2"/>
            <path d="M83,57 C83.3,48.2 77,48 77,48 L75.8,44.7 C75.2,42.4 72.9,41 70.6,41.6 L69,42 L72,53" id="Shape" stroke="#BABEC5" stroke-width="2"/>
            <path d="M77,39 L77,27 L84.9,27 C90.6,27 95,31.2 95,36.8 L95,80" id="Shape" stroke="#BABEC5" stroke-width="2"/>
            <path d="M83,27 L83,44" id="Shape" stroke="#BABEC5" stroke-width="2"/>
            <path d="M89,28 L89,47" id="Shape" stroke="#BABEC5" stroke-width="2"/>
            <path d="M48,62 L50,69.1 C50.3,70.2 51.3,71 52.3,71 C53.3,71 54,71.9 54,73 L54,100" id="Shape" stroke="#BABEC5" stroke-width="2"/>
            <path d="M56,65 C56.2,58.5 51.9,58.5 51.9,58.5 L51,56 C50.6,54.3 48.9,53.3 47.2,53.7 L46,54 L48,62" id="Shape" stroke="#BABEC5" stroke-width="2"/>
            <path d="M52,51 L52,43 L54.7,43 C60.3,43 65,47.5 65,53 L65,100" id="Shape" stroke="#BABEC5" stroke-width="2"/>
            <path d="M48,29 L43,18" id="Shape" stroke="#53B700" stroke-width="5"/>
            <path d="M65,29 L70,18" id="Shape" stroke="#53B700" stroke-width="5"/>
            <path d="M56.5,15 L56.5,28" id="Shape" stroke="#53B700" stroke-width="5"/>
        </g>
    </g>
</svg>